<svg width="12" height="15" viewBox="0 0 12 15" fill="none" xmlns="http://www.w3.org/2000/svg">
<path d="M11.6282 2.835L8.94965 0.156414C8.89977 0.10641 8.84038 0.066891 8.775 0.0401785C8.71037 0.01378 8.64125 0.000125558 8.57144 0H1.60714C0.719542 0 0 0.719541 0 1.60714V13.3929C0 14.2805 0.719542 15 1.60714 15H10.1786C11.0662 15 11.7857 14.2805 11.7857 13.3929V3.21428C11.785 3.07209 11.7284 2.93589 11.6282 2.835ZM9.10713 1.82894L9.95678 2.67859H9.10713V1.82894ZM10.7143 13.3929C10.7143 13.6887 10.4744 13.9286 10.1785 13.9286H1.60714C1.31126 13.9286 1.07142 13.6887 1.07142 13.3929V1.60714C1.07142 1.31126 1.31126 1.07142 1.60714 1.07142H8.03571V3.21428C8.03571 3.51016 8.27556 3.75001 8.57144 3.75001H10.7143V13.3929H10.7143Z" fill="#5192FC"/>
</svg>
