<svg xmlns="http://www.w3.org/2000/svg" width="20" height="20" viewBox="0 0 20 20"><g><g><path fill="#969696" d="M17.857 0C19.041 0 20 .96 20 2.143V13.57c0 1.184-.96 2.143-2.143 2.143h-2.536l.389 3.493a.714.714 0 0 1-1.188.61l-4.558-4.103H2.143A2.143 2.143 0 0 1 0 13.572V2.142C0 .96.96 0 2.143 0zM2.143 14.286h8.095c.176 0 .347.065.478.183l3.367 3.031-.27-2.42a.714.714 0 0 1 .71-.794h3.334c.395 0 .714-.32.714-.714V2.142a.714.714 0 0 0-.714-.713H2.143a.714.714 0 0 0-.714.714V13.57c0 .395.32.715.714.715z"/><path fill="none" stroke="#fff" stroke-miterlimit="20" stroke-width=".3" d="M17.857 0C19.041 0 20 .96 20 2.143V13.57c0 1.184-.96 2.143-2.143 2.143h-2.536l.389 3.493a.714.714 0 0 1-1.188.61l-4.558-4.103H2.143A2.143 2.143 0 0 1 0 13.572V2.142C0 .96.96 0 2.143 0zM2.143 14.286h8.095c.176 0 .347.065.478.183l3.367 3.031-.27-2.42a.714.714 0 0 1 .71-.794h3.334c.395 0 .714-.32.714-.714V2.142a.714.714 0 0 0-.714-.713H2.143a.714.714 0 0 0-.714.714V13.57c0 .395.32.715.714.715z"/></g></g></svg>