<svg width="11" height="11" viewBox="0 0 11 11" fill="none" xmlns="http://www.w3.org/2000/svg">
<path d="M4.55558 6.445C3.50565 5.39507 3.26858 4.34514 3.2151 3.92449C3.20016 3.80818 3.24018 3.69153 3.32339 3.6089L4.17305 2.75963C4.29803 2.63472 4.32021 2.44006 4.22653 2.29023L2.87372 0.189619C2.77008 0.0237185 2.55727 -0.0361567 2.38233 0.0513609L0.210592 1.07417C0.0691204 1.14383 -0.014091 1.29414 0.00197146 1.45101C0.115764 2.53204 0.587056 5.18949 3.1986 7.80122C5.81015 10.413 8.46721 10.8841 9.54881 10.9979C9.70568 11.0139 9.85599 10.9307 9.92565 10.7892L10.9485 8.61749C11.0357 8.44293 10.9762 8.23069 10.811 8.12686L8.71035 6.77443C8.56061 6.68065 8.36595 6.70267 8.24095 6.82753L7.39168 7.67719C7.30905 7.7604 7.1924 7.80042 7.07609 7.78548C6.65544 7.732 5.60551 7.49493 4.55558 6.445Z" fill="#151B24"/>
<path d="M8.72453 5.87923C8.51505 5.87923 8.34522 5.70941 8.34522 5.49992C8.34345 3.92951 7.07082 2.65688 5.5004 2.6551C5.29092 2.6551 5.12109 2.48528 5.12109 2.27579C5.12109 2.06631 5.29092 1.89648 5.5004 1.89648C7.48962 1.89868 9.10165 3.51071 9.10384 5.49992C9.10384 5.70941 8.93402 5.87923 8.72453 5.87923Z" fill="#151B24"/>
<path d="M10.6211 5.8793C10.4116 5.8793 10.2418 5.70947 10.2418 5.49999C10.2388 2.88261 8.11777 0.761545 5.5004 0.758619C5.29092 0.758619 5.12109 0.588796 5.12109 0.379309C5.12109 0.169823 5.29092 0 5.5004 0C8.53658 0.00334473 10.997 2.46381 11.0004 5.49999C11.0004 5.60058 10.9604 5.69706 10.8893 5.7682C10.8182 5.83933 10.7217 5.8793 10.6211 5.8793Z" fill="#151B24"/>
</svg>
