<svg width="16" height="14" viewBox="0 0 16 14" fill="none" xmlns="http://www.w3.org/2000/svg">
<g clip-path="url(#clip0)">
<path fill-rule="evenodd" clip-rule="evenodd" d="M7 10.8C9.65097 10.8 11.8 8.65097 11.8 6C11.8 3.34903 9.65097 1.2 7 1.2C4.34903 1.2 2.2 3.34903 2.2 6C2.2 8.65097 4.34903 10.8 7 10.8ZM7 12C10.3137 12 13 9.31371 13 6C13 2.68629 10.3137 0 7 0C3.68629 0 1 2.68629 1 6C1 9.31371 3.68629 12 7 12Z" fill="#969696"/>
<path fill-rule="evenodd" clip-rule="evenodd" d="M11.2249 9.38143C10.9691 9.17077 10.5909 9.20736 10.3803 9.46316C10.1696 9.71895 10.2062 10.0971 10.462 10.3077L14.4903 13.6251C14.7461 13.8358 15.1242 13.7992 15.3348 13.5434C15.5455 13.2876 15.5089 12.9095 15.2531 12.6988L11.2249 9.38143Z" fill="#969696"/>
</g>
<defs>
<clipPath id="clip0">
<rect width="16" height="14" fill="white"/>
</clipPath>
</defs>
</svg>
