<svg width="25" height="25" viewBox="0 0 25 25" fill="none" xmlns="http://www.w3.org/2000/svg">
<circle cx="12.5" cy="12.5" r="12.25" stroke="#337DF6" stroke-width="0.5"/>
<path d="M14.8498 17.0675C15.3483 17.6035 15.9976 17.9253 16.681 17.9879C16.3417 17.5662 16.1316 17.0527 16.0697 16.5071L16.0358 16.2083L16.2835 16.0379C17.6563 15.0934 18.3189 13.7463 18.3189 12.3454C18.3189 9.73715 16.0161 7.00088 12.2978 7.00088C10.3 7.00088 8.80963 7.6409 7.82249 8.57872C6.83308 9.5187 6.32071 10.7837 6.32071 12.0914C6.32071 14.6898 8.35656 17.1991 12.2978 17.1991C12.9885 17.1991 13.7101 17.1021 14.3499 16.9257L14.6429 16.845L14.8498 17.0675Z" stroke="#337DF6" stroke-width="1.00177"/>
<circle cx="9.89786" cy="12.4999" r="0.5" fill="#969696" stroke="#337DF6" stroke-width="0.266425"/>
<circle cx="12.5004" cy="12.4999" r="0.5" fill="#969696" stroke="#337DF6" stroke-width="0.266425"/>
<circle cx="15.1025" cy="12.4999" r="0.5" fill="#969696" stroke="#337DF6" stroke-width="0.266425"/>
</svg>
