<svg width="9" height="12" viewBox="0 0 9 12" fill="none" xmlns="http://www.w3.org/2000/svg">
<path d="M4.49995 0.35C2.19494 0.35 0.35 2.12814 0.35 4.27598C0.35 4.42186 0.361053 4.57943 0.384839 4.75914L0.385589 4.7648L0.385542 4.76481C0.52927 6.00619 1.24305 7.54592 2.56356 9.34973C3.52974 10.6694 4.43987 11.603 4.47888 11.643C4.48147 11.6456 4.48798 11.65 4.49996 11.65C4.51194 11.65 4.51853 11.6456 4.52118 11.6429L4.77098 11.8881M4.49995 0.35L8.65 4.27528C8.64999 4.41666 8.63923 4.57213 8.61582 4.75228L8.61578 4.75227L8.61512 4.75803C8.47469 5.99942 7.76204 7.54035 6.43982 9.34643L6.43981 9.34644C5.46929 10.6722 4.55411 11.6092 4.52068 11.6434L4.77098 11.8881M4.49995 0.35C6.80414 0.35 8.64914 2.12773 8.65 4.27515L4.49995 0.35ZM4.77098 11.8881C4.8099 11.8482 5.73784 10.8979 6.72223 9.55318M4.77098 11.8881C4.62443 12.0374 4.37537 12.0374 4.22892 11.888C4.1901 11.8482 3.26438 10.8995 2.28114 9.55647L6.72223 9.55318M6.72223 9.55318C8.05858 7.7278 8.81241 6.12773 8.96291 4.79737L6.72223 9.55318ZM1.12336 4.27598C1.12336 6.07177 2.65485 7.50202 4.49995 7.50202C6.34485 7.50202 7.87587 6.07169 7.87587 4.27598C7.87587 2.48035 6.34484 1.05003 4.49995 1.05003C2.65485 1.05003 1.12336 2.48027 1.12336 4.27598Z" fill="#151B24" stroke="#151B24" stroke-width="0.7"/>
</svg>
