<svg width="9" height="13" viewBox="0 0 9 13" fill="none" xmlns="http://www.w3.org/2000/svg">
<path d="M4.49995 0.683374C2.19494 0.683374 0.35 2.46151 0.35 4.60935C0.35 4.75523 0.361053 4.91281 0.384839 5.09251L0.385589 5.09818L0.385542 5.09818C0.52927 6.33957 1.24305 7.87929 2.56356 9.6831C3.52974 11.0028 4.43987 11.9364 4.47888 11.9763C4.48147 11.979 4.48798 11.9834 4.49996 11.9834C4.51194 11.9834 4.51853 11.979 4.52118 11.9763L4.77098 12.2214M4.49995 0.683374L8.65 4.60866C8.64999 4.75004 8.63923 4.90551 8.61582 5.08565L8.61578 5.08565L8.61512 5.0914C8.47469 6.33279 7.76204 7.87372 6.43982 9.6798L6.43981 9.67981C5.46929 11.0056 4.55411 11.9426 4.52068 11.9768L4.77098 12.2214M4.49995 0.683374C6.80414 0.683374 8.64914 2.4611 8.65 4.60853L4.49995 0.683374ZM4.77098 12.2214C4.8099 12.1816 5.73784 11.2313 6.72223 9.88655M4.77098 12.2214C4.62443 12.3707 4.37537 12.3707 4.22892 12.2213C4.1901 12.1816 3.26438 11.2328 2.28114 9.88985L6.72223 9.88655M6.72223 9.88655C8.05858 8.06117 8.81241 6.4611 8.96291 5.13075L6.72223 9.88655ZM1.12336 4.60935C1.12336 6.40515 2.65485 7.83539 4.49995 7.83539C6.34485 7.83539 7.87587 6.40507 7.87587 4.60935C7.87587 2.81372 6.34484 1.3834 4.49995 1.3834C2.65485 1.3834 1.12336 2.81364 1.12336 4.60935Z" fill="#151B24" stroke="#151B24" stroke-width="0.7"/>
</svg>
