<svg xmlns="http://www.w3.org/2000/svg" width="15" height="14" viewBox="0 0 15 14"><defs><clipPath id="hiw1a"><path fill="#fff" d="M2.243 14.005H1.176l.754-.766c.407-.413.661-.95.73-1.532C.916 10.547.05 8.866.05 7.104.05 3.854 2.994.55 7.606.55c4.885 0 7.504 3.04 7.504 6.27 0 3.25-2.647 6.288-7.504 6.288-.851 0-1.74-.115-2.532-.327a3.927 3.927 0 0 1-2.831 1.224z"/></clipPath></defs><g><g><path fill="none" stroke="#969696" stroke-miterlimit="20" stroke-width="2" d="M2.243 14.005v0H1.176v0l.754-.766c.407-.413.661-.95.73-1.532C.916 10.547.05 8.866.05 7.104.05 3.854 2.994.55 7.606.55c4.885 0 7.504 3.04 7.504 6.27 0 3.25-2.647 6.288-7.504 6.288-.851 0-1.74-.115-2.532-.327a3.927 3.927 0 0 1-2.831 1.224z" clip-path="url(&quot;#hiw1a&quot;)"/></g></g></svg>