<svg width="13" height="15" viewBox="0 0 13 15" fill="none" xmlns="http://www.w3.org/2000/svg">
<path d="M12.2351 2.835L9.55658 0.156414C9.5067 0.10641 9.44732 0.066891 9.38193 0.0401785C9.3173 0.01378 9.24818 0.000125558 9.17837 0H2.21408C1.32648 0 0.606934 0.719541 0.606934 1.60714V13.3929C0.606934 14.2805 1.32648 15 2.21408 15H10.7855C11.6731 15 12.3927 14.2805 12.3927 13.3929V3.21428C12.3919 3.07209 12.3353 2.93589 12.2351 2.835ZM9.71406 1.82894L10.5637 2.67859H9.71406V1.82894ZM11.3212 13.3929C11.3212 13.6887 11.0814 13.9286 10.7855 13.9286H2.21408C1.9182 13.9286 1.67835 13.6887 1.67835 13.3929V1.60714C1.67835 1.31126 1.9182 1.07142 2.21408 1.07142H8.64265V3.21428C8.64265 3.51016 8.88249 3.75001 9.17837 3.75001H11.3212V13.3929H11.3212Z" fill="#969696"/>
</svg>
