<svg width="16" height="16" viewBox="0 0 16 16" fill="none" xmlns="http://www.w3.org/2000/svg">
<path d="M1.66666 7C0.748 7 0 7.748 0 8.66666V14C0 14.9187 0.748 15.6667 1.66666 15.6667H3.66666C4.042 15.6667 4.38731 15.54 4.66666 15.3293V7H1.66666Z" fill="#337DF6"/>
<path d="M15.9997 9.50003C15.9997 9.09937 15.841 8.72603 15.5657 8.45069C15.877 8.11003 16.0357 7.65334 15.9923 7.17803C15.9143 6.33069 15.151 5.66669 14.2537 5.66669H10.1357C10.3397 5.04734 10.6663 3.91203 10.6663 3.00003C10.6663 1.55403 9.43766 0.333374 8.66632 0.333374C7.97366 0.333374 7.47898 0.723374 7.45766 0.739374C7.37901 0.802718 7.33301 0.898718 7.33301 1.00003V3.26069L5.41301 7.42003L5.33301 7.46069V14.606C5.87566 14.862 6.56232 15 6.99966 15H13.119C13.845 15 14.4804 14.5107 14.6297 13.8354C14.7063 13.488 14.6617 13.138 14.509 12.834C15.0017 12.586 15.333 12.0787 15.333 11.5C15.333 11.264 15.279 11.038 15.1764 10.8334C15.669 10.5854 15.9997 10.078 15.9997 9.50003Z" fill="#337DF6"/>
</svg>
