<svg xmlns="http://www.w3.org/2000/svg" width="7" height="10" viewBox="0 0 7 10"><defs><clipPath id="6622a"><path fill="#fff" d="M7 3.325c0 .124-.01.257-.029.406-.117 1.035-.703 2.28-1.743 3.7a18.204 18.204 0 0 1-1.517 1.815.299.299 0 0 1-.422 0c-.03-.03-.75-.769-1.515-1.813C.736 6.015.15 4.772.03 3.737.01 3.587 0 3.453 0 3.326 0 1.492 1.57 0 3.5 0S7 1.492 7 3.325zm-1.147 0c0-1.233-1.055-2.236-2.353-2.236-1.298 0-2.354 1.003-2.354 2.237 0 1.233 1.056 2.237 2.354 2.237s2.353-1.004 2.353-2.237z"/></clipPath></defs><g><g><path fill="#969696" d="M7 3.325c0 .124-.01.257-.029.406-.117 1.035-.703 2.28-1.743 3.7a18.204 18.204 0 0 1-1.517 1.815.299.299 0 0 1-.422 0c-.03-.03-.75-.769-1.515-1.813C.736 6.015.15 4.772.03 3.737.01 3.587 0 3.453 0 3.326 0 1.492 1.57 0 3.5 0S7 1.492 7 3.325zm-1.147 0c0-1.233-1.055-2.236-2.353-2.236-1.298 0-2.354 1.003-2.354 2.237 0 1.233 1.056 2.237 2.354 2.237s2.353-1.004 2.353-2.237z"/><path fill="none" stroke="#969696" stroke-miterlimit="20" stroke-width="1.4" d="M7 3.325c0 .124-.01.257-.029.406-.117 1.035-.703 2.28-1.743 3.7a18.204 18.204 0 0 1-1.517 1.815.299.299 0 0 1-.422 0c-.03-.03-.75-.769-1.515-1.813C.736 6.015.15 4.772.03 3.737.01 3.587 0 3.453 0 3.326 0 1.492 1.57 0 3.5 0S7 1.492 7 3.325zm-1.147 0c0-1.233-1.055-2.236-2.353-2.236-1.298 0-2.354 1.003-2.354 2.237 0 1.233 1.056 2.237 2.354 2.237s2.353-1.004 2.353-2.237z" clip-path="url(&quot;#6622a&quot;)"/></g></g></svg>