<svg width="12" height="12" viewBox="0 0 12 12" fill="none" xmlns="http://www.w3.org/2000/svg">
<path d="M10.8901 2.53661C10.8899 2.53274 10.8895 2.52887 10.8888 2.52503C10.8738 2.5036 10.8554 2.48516 10.8399 2.46416C10.7279 2.31154 10.6093 2.16465 10.4841 2.02346C10.4498 1.98487 10.4155 1.94672 10.3804 1.90899C10.2515 1.77096 10.1163 1.63934 9.97485 1.51417C9.94871 1.49102 9.92426 1.46703 9.89812 1.44429C9.54947 1.14561 9.16771 0.88784 8.76036 0.676089C8.74406 0.667523 8.72693 0.660239 8.7102 0.651648C8.5288 0.559463 8.34279 0.476596 8.15289 0.403425C8.11002 0.388002 8.07101 0.373408 8.03029 0.360548C7.86139 0.299685 7.68991 0.246383 7.51586 0.200642C7.46441 0.186927 7.41297 0.172785 7.36067 0.160779C7.18919 0.120915 7.01773 0.0904713 6.84237 0.0656038C6.78922 0.0578923 6.73693 0.0475937 6.68332 0.0411633C6.23171 -0.0137211 5.77513 -0.0137211 5.3235 0.0411633C5.26992 0.0475937 5.21762 0.0578923 5.16444 0.0656038C4.98912 0.0904713 4.81592 0.120915 4.64615 0.160779C4.59385 0.172785 4.54241 0.186927 4.49096 0.200642C4.31576 0.246358 4.1443 0.29966 3.97653 0.360548C3.93365 0.375117 3.89464 0.389711 3.85393 0.403425C3.66405 0.476596 3.47802 0.559438 3.29662 0.651648C3.27989 0.660214 3.26276 0.667498 3.24646 0.676089C2.83775 0.887614 2.45471 1.14536 2.10483 1.44429C2.07869 1.467 2.05425 1.49102 2.0281 1.51417C1.8852 1.63992 1.75001 1.77154 1.62256 1.90899C1.58741 1.94672 1.5531 1.98487 1.51882 2.02346C1.39335 2.16435 1.27474 2.31124 1.16301 2.46414C1.14759 2.48514 1.12915 2.50358 1.11413 2.525C1.11217 2.52874 1.11044 2.53261 1.10898 2.53658C-0.36966 4.6088 -0.36966 7.3912 1.10898 9.46339C1.11044 9.46736 1.11214 9.47123 1.11413 9.47497C1.12912 9.4964 1.14756 9.51484 1.16301 9.53584C1.27476 9.68846 1.39335 9.83535 1.51882 9.97654C1.5531 10.0151 1.58741 10.0533 1.62256 10.091C1.75174 10.229 1.88691 10.3607 2.0281 10.4858C2.05425 10.509 2.07869 10.533 2.10483 10.5557C2.45348 10.8544 2.83524 11.1122 3.24259 11.3239C3.25889 11.3325 3.27602 11.3398 3.29275 11.3484C3.47416 11.4405 3.66016 11.5234 3.85006 11.5966C3.89294 11.612 3.93195 11.6266 3.97266 11.6395C4.14156 11.7003 4.31305 11.7536 4.48709 11.7994C4.53854 11.8131 4.58998 11.8272 4.64228 11.8392C4.81376 11.8791 4.98522 11.9095 5.16058 11.9344C5.21373 11.9421 5.26603 11.9524 5.31963 11.9588C5.77124 12.0137 6.22782 12.0137 6.67945 11.9588C6.73303 11.9524 6.78533 11.9421 6.83851 11.9344C7.01383 11.9095 7.18703 11.8791 7.35681 11.8392C7.4091 11.8272 7.46055 11.8131 7.51199 11.7994C7.68747 11.7536 7.85895 11.7003 8.02642 11.6395C8.0693 11.6249 8.10831 11.6103 8.14902 11.5966C8.3389 11.5234 8.52493 11.4406 8.70633 11.3484C8.72306 11.3398 8.74019 11.3325 8.7565 11.3239C9.16385 11.1121 9.5456 10.8544 9.89425 10.5557C9.9204 10.533 9.94484 10.509 9.97099 10.4858C10.1139 10.3604 10.2491 10.2288 10.3765 10.091C10.4117 10.0533 10.446 10.0151 10.4803 9.97654C10.6057 9.83535 10.7243 9.68846 10.8361 9.53584C10.8515 9.51484 10.8699 9.4964 10.885 9.47497C10.8869 9.47123 10.8886 9.46736 10.8901 9.46339C12.3687 7.39122 12.3687 4.60883 10.8901 2.53661ZM10.401 3.34772C10.811 4.02293 11.0585 4.78413 11.1242 5.57135H8.5563C8.52485 5.06053 8.44447 4.55394 8.31624 4.0585C9.04159 3.92266 9.74369 3.68328 10.401 3.34772ZM7.09231 0.974022C7.11632 0.979598 7.13945 0.98731 7.16347 0.992886C7.31694 1.02891 7.46914 1.07005 7.61789 1.12149C7.64062 1.12921 7.6629 1.13822 7.68521 1.14636C7.83268 1.1978 7.97799 1.25482 8.12034 1.31785C8.14521 1.32943 8.16965 1.34229 8.19451 1.35387C8.33083 1.41875 8.46401 1.48891 8.59405 1.56436L8.67978 1.61623C8.80324 1.69169 8.92328 1.77242 9.03989 1.85845C9.0699 1.88031 9.09989 1.90133 9.12948 1.92532C9.2438 2.01105 9.35327 2.10293 9.45786 2.20097C9.48529 2.22584 9.5136 2.25028 9.5406 2.276C9.65035 2.38017 9.75494 2.49034 9.85612 2.60438C9.86898 2.61937 9.88269 2.63309 9.89555 2.64725C9.31509 2.92389 8.70015 3.12142 8.06719 3.23456C7.77395 2.42845 7.3866 1.65976 6.91316 0.944482C6.97269 0.955183 7.03358 0.961186 7.09231 0.974022ZM4.30237 5.57132C4.33618 5.10748 4.41515 4.64804 4.53816 4.19952C5.02388 4.25721 5.51259 4.28582 6.00173 4.28525C6.49132 4.2851 6.98048 4.25576 7.46657 4.19736C7.58935 4.6466 7.6679 5.10678 7.70106 5.57132H4.30237ZM7.70106 6.42873C7.66725 6.89257 7.58827 7.35202 7.46527 7.80053C6.97955 7.74284 6.49084 7.71423 6.0017 7.7148C5.51214 7.71425 5.023 7.74286 4.53685 7.80053C4.4142 7.35199 4.33568 6.89254 4.30235 6.42873H7.70106ZM6.0017 1.13523C6.48956 1.82668 6.8908 2.57534 7.19647 3.36444C6.79962 3.40659 6.40081 3.42777 6.0017 3.42789C5.60304 3.42742 5.20466 3.40612 4.80821 3.36402C5.11426 2.57544 5.51503 1.82703 6.0017 1.13523ZM2.14776 2.60392C2.24851 2.48989 2.35354 2.37972 2.46328 2.27555C2.49028 2.24983 2.51859 2.22539 2.54602 2.20052C2.65177 2.10421 2.76124 2.01233 2.8744 1.92487C2.90399 1.90213 2.93398 1.88199 2.964 1.858C3.0806 1.77227 3.20064 1.69151 3.3241 1.61578L3.40983 1.56391C3.53987 1.4879 3.67305 1.41772 3.80937 1.35342C3.83423 1.34184 3.85867 1.32897 3.88354 1.31739C4.02586 1.25309 4.1712 1.19607 4.31867 1.14591C4.34095 1.13777 4.36155 1.12875 4.38597 1.12104C4.53472 1.07131 4.68606 1.03016 4.84039 0.992434C4.8644 0.986858 4.88754 0.979146 4.91198 0.973997C4.9707 0.961136 5.03159 0.955133 5.09117 0.944407C4.61754 1.65981 4.23005 2.42865 3.93669 3.23491C3.30373 3.12177 2.68877 2.92424 2.10833 2.64761C2.12119 2.63264 2.1349 2.61892 2.14776 2.60392ZM1.60246 3.34772C2.25959 3.68325 2.96153 3.92263 3.68676 4.0585C3.55868 4.55397 3.47843 5.06056 3.44713 5.57135H0.879268C0.944928 4.78413 1.1925 4.02293 1.60246 3.34772ZM1.60246 8.65236C1.19247 7.97714 0.944903 7.21595 0.879268 6.42873H3.44713C3.47858 6.93954 3.55896 7.44613 3.68719 7.94158C2.96184 8.07739 2.25974 8.31677 1.60246 8.65236ZM4.91112 11.026C4.88711 11.0205 4.86398 11.0127 4.83996 11.0072C4.68649 10.9711 4.53429 10.93 4.38554 10.8786C4.36281 10.8708 4.34053 10.8618 4.31822 10.8537C4.17075 10.8022 4.02544 10.7452 3.88309 10.6822C3.85822 10.6706 3.83378 10.6578 3.80891 10.6462C3.67259 10.5813 3.53941 10.5111 3.40938 10.4357L3.32365 10.3838C3.20019 10.3084 3.08014 10.2276 2.96354 10.1416C2.93353 10.1197 2.90353 10.0987 2.87394 10.0747C2.75963 9.989 2.65016 9.89712 2.54557 9.79908C2.51814 9.77421 2.48983 9.74977 2.46283 9.72405C2.35308 9.61988 2.24849 9.50971 2.14731 9.39567C2.13445 9.38068 2.12074 9.36696 2.10787 9.3528C2.68834 9.07616 3.30327 8.87863 3.93624 8.76549C4.22948 9.5716 4.61683 10.3403 5.09027 11.0556C5.03071 11.0449 4.96985 11.0389 4.91112 11.026ZM6.0017 10.8648C5.51385 10.1734 5.1126 9.42474 4.80693 8.63563C5.60086 8.55018 6.40167 8.55018 7.19559 8.63563L7.19517 8.63606C6.88917 9.42461 6.4884 10.173 6.0017 10.8648ZM9.85567 9.39612C9.75491 9.51016 9.64989 9.62033 9.54015 9.7245C9.51315 9.75022 9.48484 9.77466 9.45741 9.79953C9.35166 9.89614 9.24219 9.98802 9.12903 10.0752C9.09944 10.0979 9.06945 10.1202 9.03943 10.1421C8.92283 10.2278 8.80279 10.3085 8.67933 10.3843L8.5936 10.4361C8.46384 10.5119 8.33066 10.582 8.19406 10.6466C8.1692 10.6582 8.14476 10.6711 8.11989 10.6827C7.97756 10.747 7.83223 10.804 7.68476 10.8541C7.66248 10.8623 7.64188 10.8713 7.61746 10.879C7.46871 10.9287 7.31737 10.9699 7.16304 11.0076C7.13903 11.0132 7.11589 11.0209 7.09145 11.0261C7.03272 11.0389 6.97184 11.0449 6.91226 11.0556C7.38569 10.3404 7.77307 9.57168 8.06628 8.76557C8.69925 8.8787 9.31421 9.07624 9.89465 9.35287C9.88224 9.36741 9.86853 9.38113 9.85567 9.39612ZM10.401 8.65236C9.74384 8.31682 9.04189 8.07744 8.31667 7.94158C8.44475 7.44611 8.525 6.93952 8.5563 6.42873H11.1242C11.0585 7.21592 10.8109 7.97712 10.401 8.65236Z" fill="#151B24"/>
</svg>
